<?xml version="1.0" encoding="UTF-8"?>
<svg width="245px" height="40px" viewBox="0 0 245 40" version="1.1" xmlns="http://www.w3.org/2000/svg" xmlns:xlink="http://www.w3.org/1999/xlink">
    <!-- Generator: Sketch 50.2 (55047) - http://www.bohemiancoding.com/sketch -->
    <title>install-button</title>
    <desc>Created with Sketch.</desc>
    <defs></defs>
    <g id="install-button" stroke="none" stroke-width="1" fill="none" fill-rule="evenodd">
        <rect id="Rectangle" fill="#F98A18" x="0" y="0" width="245" height="40" rx="4"></rect>
        <path d="M22.8991788,24.0529412 C22.8991788,25.0941176 22.4670031,25.6588235 21.4405857,25.6588235 C20.5762343,25.6588235 20,25.0235294 20,24.0529412 L20,14.8764706 C20,13.9235294 20.5762343,13.2882353 21.4405857,13.2882353 C22.4489957,13.2882353 22.8991788,13.9235294 22.8991788,14.8764706 L22.8991788,24.0529412 Z M29.8680123,16.7117647 C32.4790739,16.7117647 33.5955279,18.0176471 33.5955279,20.3117647 L33.5955279,24.3705882 C33.5955279,25.1117647 33.0913228,25.6588235 32.1909568,25.6588235 C31.2905907,25.6588235 30.8224003,25.1117647 30.8224003,24.3705882 L30.8224003,20.6470588 C30.8224003,19.5 30.1741367,19.0764706 29.3998219,19.0764706 C28.4814485,19.0764706 27.8511922,19.6058824 27.8331849,20.6117647 L27.8331849,24.3705882 C27.8331849,25.1117647 27.2749579,25.6588235 26.3925992,25.6588235 C25.5642624,25.6588235 25.0600574,25.1117647 25.0600574,24.3705882 L25.0600574,18.1058824 C25.0600574,17.3823529 25.5282477,16.8882353 26.3745919,16.8882353 C26.8427822,16.8882353 27.2389433,17.1529412 27.4190165,17.5588235 C28.0492728,17.0294118 28.9676462,16.7117647 29.8680123,16.7117647 Z M39.0517463,25.7647059 C37.7732265,25.7647059 36.7828238,25.4647059 36.0805382,25.0058824 C35.6843772,24.7588235 35.3242307,24.4588235 35.3242307,23.9294118 C35.3242307,23.3470588 35.7564065,22.9588235 36.3326407,22.9588235 C36.6747799,22.9588235 36.9268824,23.0823529 37.2510141,23.2588235 C37.8812704,23.6117647 38.5655486,23.7882353 39.3038488,23.7882353 C40.0601563,23.7882353 40.4563174,23.6117647 40.4563174,23.3117647 C40.4563174,22.2176471 35.1081429,23.3470588 35.1081429,19.6764706 C35.1081429,17.9117647 36.5847432,16.6941176 39.1237756,16.6941176 C41.0145444,16.6941176 42.0949837,17.3823529 42.671218,18.2294118 C42.8512912,18.4764706 42.9953498,18.7588235 42.9953498,19.1294118 C42.9953498,19.7823529 42.5811814,20.2235294 41.9689324,20.2235294 C41.4827347,20.2235294 41.2486396,19.9411765 40.9425151,19.6588235 C40.6543979,19.3235294 40.2942515,18.7941176 38.9256951,18.7941176 C37.8812704,18.7941176 37.4310874,19.1117647 37.4310874,19.5882353 C37.4310874,21.1764706 42.7252399,20.0117647 42.7252399,23.1705882 C42.7252399,24.7764706 41.3746908,25.7647059 39.0517463,25.7647059 Z M50.0362125,19.0235294 L48.2534877,19.0235294 L48.2534877,22.4470588 C48.2534877,23.0470588 48.5596121,23.4176471 48.9557732,23.4176471 C49.2078757,23.4176471 49.4419709,23.3823529 49.5860295,23.3294118 C49.7300881,23.2941176 49.8021173,23.2941176 49.9641832,23.2941176 C50.4143663,23.2941176 50.8105274,23.6470588 50.8105274,24.3529412 C50.8105274,24.9352941 50.4143663,25.2705882 50.0722272,25.4117647 C49.5500148,25.6235294 49.0278025,25.6941176 48.4155536,25.6941176 C46.5607994,25.6941176 45.4803601,24.7235294 45.4803601,22.8352941 L45.4803601,19.0235294 L44.74206,19.0235294 C44.2198476,19.0235294 43.6616207,18.6882353 43.6616207,18 C43.6616207,17.2058824 44.2198476,16.9764706 44.74206,16.9764706 L45.4803601,16.9764706 L45.4803601,16.2529412 C45.4803601,15.3529412 46.0746018,14.7529412 46.9029386,14.7529412 C47.7312754,14.7529412 48.2534877,15.3352941 48.2534877,16.2529412 L48.2534877,16.9764706 L50.0362125,16.9764706 C50.7024834,16.9764706 51.1166518,17.4352941 51.1166518,18 C51.1166518,18.5470588 50.7024834,19.0235294 50.0362125,19.0235294 Z M60.13832,23.8058824 C60.2823785,24.0529412 60.4444444,24.3176471 60.4444444,24.6176471 C60.4444444,25.1823529 59.8502028,25.7647059 59.0938953,25.7647059 C58.6977342,25.7647059 58.4456317,25.6235294 58.2115366,25.3764706 C58.013456,25.1823529 57.8874048,25.0235294 57.7973682,24.6176471 C57.2751558,25.3235294 56.1587019,25.8176471 55.0962699,25.8176471 C53.3135451,25.8176471 51.9990106,24.9 51.9990106,23.3823529 C51.9990106,21.9705882 52.9894133,20.7352941 56.2127239,20.7352941 C56.6448996,20.7352941 56.8789948,20.7352941 57.3111705,20.7705882 L57.3111705,20.3647059 C57.3111705,19.3058824 56.6448996,18.8470588 55.6544969,18.8470588 C54.8621747,18.8470588 54.429999,19.1647059 54.0338379,19.5705882 C53.7997428,19.8529412 53.4936183,20.1 52.971406,20.1 C52.3411497,20.1 51.8729593,19.7117647 51.8729593,19.0411765 C51.8729593,17.8764706 53.2055011,16.5882353 55.7625408,16.5882353 C58.7157416,16.5882353 59.7781735,18.0352941 59.7781735,19.8352941 C59.7781735,20.6647059 59.7061443,21.6 59.7061443,22.1294118 C59.7061443,23.1 59.8502028,23.4176471 60.13832,23.8058824 Z M55.3303651,23.8941176 C56.2667458,23.8941176 57.1671119,23.2411765 57.2751558,22.4823529 C56.9870387,22.4647059 56.7169289,22.4470588 56.2487385,22.4470588 C54.5560503,22.4470588 54.1959038,22.8176471 54.1959038,23.2764706 C54.1959038,23.6470588 54.5920649,23.8941176 55.3303651,23.8941176 Z M64.6221431,24.0882353 C64.6221431,25.2 64.2079747,25.6588235 63.2355793,25.6588235 C62.3892352,25.6588235 61.8490155,25.0411765 61.8490155,24.0882353 L61.8490155,13.5705882 C61.8490155,12.6176471 62.3892352,12 63.2355793,12 C64.2079747,12 64.6221431,12.6176471 64.6221431,13.5705882 L64.6221431,24.0882353 Z M69.322054,24.0882353 C69.322054,25.2 68.9078856,25.6588235 67.9354903,25.6588235 C67.0891461,25.6588235 66.5489265,25.0411765 66.5489265,24.0882353 L66.5489265,13.5705882 C66.5489265,12.6176471 67.0891461,12 67.9354903,12 C68.9078856,12 69.322054,12.6176471 69.322054,13.5705882 L69.322054,24.0882353 Z M80.2885129,19.0235294 L78.5057881,19.0235294 L78.5057881,22.4470588 C78.5057881,23.0470588 78.8119125,23.4176471 79.2080736,23.4176471 C79.4601761,23.4176471 79.6942713,23.3823529 79.8383299,23.3294118 C79.9823884,23.2941176 80.0544177,23.2941176 80.2164836,23.2941176 C80.6666667,23.2941176 81.0628277,23.6470588 81.0628277,24.3529412 C81.0628277,24.9352941 80.6666667,25.2705882 80.3245276,25.4117647 C79.8023152,25.6235294 79.2801029,25.6941176 78.667854,25.6941176 C76.8130998,25.6941176 75.7326605,24.7235294 75.7326605,22.8352941 L75.7326605,19.0235294 L74.9943603,19.0235294 C74.472148,19.0235294 73.913921,18.6882353 73.913921,18 C73.913921,17.2058824 74.472148,16.9764706 74.9943603,16.9764706 L75.7326605,16.9764706 L75.7326605,16.2529412 C75.7326605,15.3529412 76.3269021,14.7529412 77.1552389,14.7529412 C77.9835757,14.7529412 78.5057881,15.3352941 78.5057881,16.2529412 L78.5057881,16.9764706 L80.2885129,16.9764706 C80.9547838,16.9764706 81.3689522,17.4352941 81.3689522,18 C81.3689522,18.5470588 80.9547838,19.0235294 80.2885129,19.0235294 Z M87.6174928,16.6941176 C89.976452,16.6941176 91.0929059,17.8941176 91.0929059,20.1529412 L91.0929059,24.3705882 C91.0929059,25.1117647 90.6067082,25.6588235 89.7243495,25.6588235 C88.8239834,25.6588235 88.2837637,25.1117647 88.2837637,24.3705882 L88.2837637,20.5058824 C88.2837637,19.3764706 87.6895221,18.9705882 86.8972,18.9705882 C85.9067973,18.9705882 85.2945483,19.5352941 85.2945483,20.5941176 L85.2945483,24.3705882 C85.2945483,25.2529412 84.8803799,25.6588235 83.9079846,25.6588235 C83.0616404,25.6588235 82.5214208,25.2 82.5214208,24.3705882 L82.5214208,13.2882353 C82.5214208,12.5117647 83.0616404,12 83.9079846,12 C84.8443653,12 85.2945483,12.5117647 85.2945483,13.2882353 L85.2945483,17.3294118 C85.9608192,16.8882353 86.8071634,16.6941176 87.6174928,16.6941176 Z M97.0353221,16.6764706 C99.6103691,16.6764706 101.195013,18.2117647 101.195013,20.9470588 C101.195013,21.1764706 101.177006,21.4588235 101.122984,21.7058824 C101.050955,22.1117647 100.852874,22.4117647 100.186603,22.4117647 L95.3426338,22.3941176 C95.6667656,23.2235294 96.3870585,23.6647059 97.3414465,23.6647059 C97.9356881,23.6647059 98.4398931,23.5058824 98.8000396,23.3117647 C99.0161274,23.2058824 99.1781933,23.1529412 99.4483032,23.1529412 C100.204611,23.1529412 100.492728,23.6470588 100.492728,24.1411765 C100.492728,24.6352941 100.168596,24.9352941 99.718413,25.2 C99.0701494,25.6058824 98.1337687,25.8176471 97.143366,25.8176471 C94.5503117,25.8176471 92.6055209,24.1058824 92.6055209,21.2117647 C92.6055209,18.3529412 94.4962897,16.6764706 97.0353221,16.6764706 Z M97.0353221,18.9352941 C96.0449194,18.9352941 95.3606411,19.4294118 95.1805679,20.6117647 L98.7460176,20.6117647 C98.6919956,19.5352941 98.151776,18.9352941 97.0353221,18.9352941 Z M116.753339,19.5705882 C117.725735,19.5882353 118.175918,20.1529412 118.175918,20.8411765 L118.175918,24.7058824 C118.175918,25.3058824 117.905808,25.6588235 117.167508,25.6588235 C116.501237,25.6588235 116.069061,25.3588235 116.069061,24.7058824 L116.069061,24.3705882 C115.330761,25.1823529 114.016226,25.8352941 112.161472,25.8352941 C108.956169,25.8352941 106.273078,23.5764706 106.273078,19.6411765 C106.273078,15.4941176 109.244286,13.1117647 112.863758,13.1117647 C116.267142,13.1117647 118.410013,14.9647059 118.410013,16.8882353 C118.410013,17.6470588 117.851786,18.1235294 117.185515,18.1235294 C116.447215,18.1235294 116.14109,17.7529412 115.852973,17.2058824 C115.438805,16.2882353 114.574453,15.6176471 112.809736,15.6176471 C110.504799,15.6176471 109.136242,17.1 109.136242,19.5882353 C109.136242,21.9352941 110.432769,23.3470588 112.629663,23.3470588 C114.250322,23.3470588 115.330761,22.6411765 115.420797,21.6 L115.420797,21.5823529 L113.566043,21.5823529 C112.863758,21.5823529 112.37756,21.1411765 112.37756,20.5941176 C112.37756,20.0117647 112.881765,19.5705882 113.566043,19.5705882 L116.753339,19.5705882 Z M121.52528,15.4588235 C120.534877,15.4588235 119.832591,14.8058824 119.832591,13.8705882 C119.832591,12.8470588 120.534877,12.2117647 121.52528,12.2117647 C122.497675,12.2117647 123.217968,12.8470588 123.217968,13.8705882 C123.217968,14.8058824 122.497675,15.4588235 121.52528,15.4588235 Z M121.52528,25.6588235 C120.696943,25.6588235 120.120708,25.0588235 120.120708,24.1764706 L120.120708,18.2823529 C120.120708,17.4176471 120.678935,16.8352941 121.52528,16.8352941 C122.46166,16.8352941 122.893836,17.4176471 122.893836,18.2823529 L122.893836,24.1764706 C122.893836,25.2352941 122.46166,25.6588235 121.52528,25.6588235 Z M130.348867,19.0235294 L128.566142,19.0235294 L128.566142,22.4470588 C128.566142,23.0470588 128.872267,23.4176471 129.268428,23.4176471 C129.52053,23.4176471 129.754626,23.3823529 129.898684,23.3294118 C130.042743,23.2941176 130.114772,23.2941176 130.276838,23.2941176 C130.727021,23.2941176 131.123182,23.6470588 131.123182,24.3529412 C131.123182,24.9352941 130.727021,25.2705882 130.384882,25.4117647 C129.862669,25.6235294 129.340457,25.6941176 128.728208,25.6941176 C126.873454,25.6941176 125.793015,24.7235294 125.793015,22.8352941 L125.793015,19.0235294 L125.054715,19.0235294 C124.532502,19.0235294 123.974275,18.6882353 123.974275,18 C123.974275,17.2058824 124.532502,16.9764706 125.054715,16.9764706 L125.793015,16.9764706 L125.793015,16.2529412 C125.793015,15.3529412 126.387256,14.7529412 127.215593,14.7529412 C128.04393,14.7529412 128.566142,15.3352941 128.566142,16.2529412 L128.566142,16.9764706 L130.348867,16.9764706 C131.015138,16.9764706 131.429306,17.4352941 131.429306,18 C131.429306,18.5470588 131.015138,19.0235294 130.348867,19.0235294 Z M142.395765,13.2882353 C143.44019,13.2882353 143.872366,13.9588235 143.872366,14.8764706 L143.872366,24.0352941 C143.872366,25.1823529 143.44019,25.6588235 142.395765,25.6588235 C141.549421,25.6588235 140.973187,25.0235294 140.973187,24.0352941 L140.973187,21.5647059 L135.715049,21.5647059 L135.715049,24.0352941 C135.715049,25.1823529 135.264866,25.6588235 134.238449,25.6588235 C133.392104,25.6588235 132.797863,25.0235294 132.797863,24.0352941 L132.797863,14.8764706 C132.797863,13.9588235 133.392104,13.2882353 134.238449,13.2882353 C135.246859,13.2882353 135.715049,13.9588235 135.715049,14.8764706 L135.715049,19.0588235 L140.973187,19.0588235 L140.973187,14.8764706 C140.973187,13.9588235 141.531414,13.2882353 142.395765,13.2882353 Z M152.858019,16.8352941 C153.758385,16.8352941 154.280598,17.3823529 154.280598,18.3176471 L154.280598,24.3352941 C154.280598,25.1823529 153.830415,25.6764706 153.002078,25.6764706 C152.407836,25.6764706 152.029682,25.3588235 151.903631,24.7764706 C151.30939,25.4117647 150.517067,25.7647059 149.580687,25.7647059 C147.599881,25.7647059 146.033244,24.7235294 146.033244,22.2705882 L146.033244,18.3176471 C146.033244,17.3470588 146.519442,16.8352941 147.347779,16.8352941 C148.320174,16.8352941 148.734343,17.3823529 148.734343,18.3176471 L148.734343,22.1470588 C148.734343,23.1352941 149.310577,23.5411765 149.994855,23.5411765 C150.913228,23.5411765 151.543485,22.9235294 151.561492,21.9529412 L151.561492,18.3176471 C151.561492,17.3470588 151.993668,16.8352941 152.858019,16.8352941 Z M160.943307,16.7470588 C163.230236,16.7470588 165.066983,18.3529412 165.066983,21.2117647 C165.066983,24.1588235 163.230236,25.7647059 160.979321,25.7647059 C159.934897,25.7647059 159.124567,25.4647059 158.512318,24.9882353 C158.314238,25.4294118 157.954091,25.6588235 157.413872,25.6588235 C156.603542,25.6588235 156.135352,25.1294118 156.135352,24.1588235 L156.135352,13.4823529 C156.135352,12.5823529 156.675571,12 157.521916,12 C158.458296,12 158.908479,12.5823529 158.908479,13.4823529 L158.908479,17.2941176 C159.448699,16.9588235 160.132977,16.7470588 160.943307,16.7470588 Z M160.58316,23.5235294 C161.663599,23.5235294 162.311863,22.6588235 162.311863,21.2117647 C162.311863,19.8352941 161.663599,19.0235294 160.58316,19.0235294 C159.610765,19.0235294 158.908479,19.8176471 158.908479,20.7176471 L158.908479,21.9352941 C158.908479,22.8176471 159.610765,23.5235294 160.58316,23.5235294 Z M181.165529,23.5764706 C181.29158,23.8941176 181.417631,24.2294118 181.417631,24.6 C181.417631,25.2529412 180.859404,25.6941176 180.049075,25.6941176 C179.346789,25.6941176 178.896606,25.3235294 178.73454,24.7235294 L178.302365,23.4529412 L172.323934,23.4529412 L171.891758,24.7764706 C171.693678,25.3411765 171.279509,25.6941176 170.66726,25.6941176 C169.838924,25.6941176 169.226675,25.2176471 169.226675,24.5470588 C169.226675,24.1764706 169.370733,23.8588235 169.46077,23.5764706 C170.505194,20.8588235 171.603641,18.0529412 172.720095,15.1058824 C173.206293,13.7823529 173.998615,13.0588235 175.367171,13.0588235 C176.771742,13.0588235 177.474028,13.7823529 177.978233,15.1058824 C179.07668,18.0352941 180.139112,20.8941176 181.165529,23.5764706 Z M173.116256,21.0882353 L177.52805,21.0882353 C177.005838,19.4823529 176.483625,17.9294118 175.961413,16.3764706 C175.853369,16.0235294 175.619274,15.8294118 175.367171,15.8294118 C175.133076,15.8294118 174.844959,16.0235294 174.736915,16.3764706 C174.196695,17.9294118 173.656476,19.4823529 173.116256,21.0882353 Z M187.378055,16.7470588 C189.664985,16.7470588 191.501731,18.3529412 191.501731,21.2117647 C191.501731,24.1588235 189.664985,25.7647059 187.414069,25.7647059 C186.567725,25.7647059 185.901454,25.5352941 185.343227,25.2 L185.343227,28.5176471 C185.343227,29.4176471 184.875037,30 183.956664,30 C183.11032,30 182.5701,29.4176471 182.5701,28.5176471 L182.5701,18.3352941 C182.5701,17.3470588 183.03829,16.8176471 183.84862,16.8176471 C184.442861,16.8176471 184.803008,17.1 184.983081,17.6117647 C185.59533,17.1 186.387652,16.7470588 187.378055,16.7470588 Z M187.017908,23.5235294 C188.098348,23.5235294 188.746611,22.6588235 188.746611,21.2117647 C188.746611,19.8352941 188.098348,19.0235294 187.017908,19.0235294 C186.045513,19.0235294 185.343227,19.8176471 185.343227,20.7176471 L185.343227,21.9352941 C185.343227,22.8176471 186.045513,23.5235294 187.017908,23.5235294 Z M197.876323,16.7470588 C200.163253,16.7470588 202,18.3529412 202,21.2117647 C202,24.1588235 200.163253,25.7647059 197.912338,25.7647059 C197.065994,25.7647059 196.399723,25.5352941 195.841496,25.2 L195.841496,28.5176471 C195.841496,29.4176471 195.373306,30 194.454932,30 C193.608588,30 193.068368,29.4176471 193.068368,28.5176471 L193.068368,18.3352941 C193.068368,17.3470588 193.536559,16.8176471 194.346888,16.8176471 C194.94113,16.8176471 195.301276,17.1 195.48135,17.6117647 C196.093598,17.1 196.885921,16.7470588 197.876323,16.7470588 Z M197.516177,23.5235294 C198.596616,23.5235294 199.24488,22.6588235 199.24488,21.2117647 C199.24488,19.8352941 198.596616,19.0235294 197.516177,19.0235294 C196.543782,19.0235294 195.841496,19.8176471 195.841496,20.7176471 L195.841496,21.9352941 C195.841496,22.8176471 196.543782,23.5235294 197.516177,23.5235294 Z" id="Install-the-GitHub-A" fill="#FFFFFF"></path>
        <path d="M223.41425,13.9020045 C222.52325,13.0432269 221,13.6514964 221,14.8657854 L221,18.0001361 L214.25,18.0001361 C213.00725,18.0001361 212,19.0074185 212,20.2502085 C212,20.2502085 212,20.2502085 212,20.2502085 C212,20.2502085 212,20.2502085 212,20.2502085 C212,20.2562086 212.0015,20.2622088 212.0015,20.268209 C212.01125,21.5027487 213.01325,22.5002808 214.25,22.5002808 L221,22.5002808 L221,25.6338815 C221,26.8481705 222.52325,27.45719 223.41425,26.5976624 L230,20.2502085 L223.41425,13.9020045 Z" id="arrow-right" fill-opacity="0.550000012" fill="#FFFFFF" fill-rule="nonzero" style="mix-blend-mode: luminosity;"></path>
    </g>
</svg>