<?xml version="1.0" encoding="UTF-8"?>
<svg width="361px" height="60px" viewBox="0 0 361 60" version="1.1" xmlns="http://www.w3.org/2000/svg" xmlns:xlink="http://www.w3.org/1999/xlink">
    <!-- Generator: Sketch 50.2 (55047) - http://www.bohemiancoding.com/sketch -->
    <title>logo</title>
    <desc>Created with Sketch.</desc>
    <defs></defs>
    <g id="logo" stroke="none" stroke-width="1" fill="none" fill-rule="evenodd">
        <rect id="Rectangle" fill="#F98A18" x="11" y="10" width="40" height="40" rx="4"></rect>
        <path d="M33,34.422 L33,34 C33,32.896 32.105,32 31,32 L25,32 C23.895,32 23,32.896 23,34 L23,34.422 C21.236,35.194 20,36.951 20,39 L20,42 L36,42 L36,39 C36,36.951 34.764,35.194 33,34.422 Z M37,18 C31.477,18 27,22.477 27,28 L27,30 L29,30 L29,28 C29,27.893 29.029,25.368 31.553,24.105 C32.049,23.858 32.648,24.059 32.895,24.552 C33.142,25.046 32.942,25.647 32.448,25.894 C31.017,26.61 31,27.986 31,28 L34,28 C39.523,28 44,23.523 44,18 L37,18 Z" id="inkwell" fill="#FFFFFF" fill-rule="nonzero"></path>
        <path d="M87.8848374,39.8914432 C88.376104,40.6679438 88.4989207,41.2809706 88.4989207,41.6896552 C88.4989207,43.6104725 86.8204264,44.6321839 85.3466265,44.6321839 C83.4224988,44.6321839 82.64466,43.5696041 81.7440045,41.8939974 L79.9426935,38.6653895 C79.2467324,37.3984674 78.0185658,36.2132822 76.2581937,36.2132822 L71.5092829,36.2132822 L71.5092829,41.4853129 C71.5092829,43.5287356 70.403933,44.6321839 68.234172,44.6321839 C66.1872277,44.6321839 65,43.5287356 65,41.4853129 L65,19.293742 C65,17.2911877 66.1872277,16.3103448 68.234172,16.0651341 L68.3160498,16.0651341 C69.8307886,15.9016603 72.9421439,15.697318 76.0944382,15.697318 C84.2412765,15.697318 88.2532874,19.293742 88.2532874,25.6283525 C88.2532874,30.2873563 85.6741376,32.5759898 83.0540488,33.7203065 C84.077521,34.0063857 84.8144209,34.7011494 85.7560153,36.2950192 L87.8848374,39.8914432 Z M75.5212938,31.1864623 C79.6970602,31.1864623 82.1124545,29.633461 82.1124545,26.1596424 C82.1124545,23.2171137 80.0655101,21.3780332 75.8897437,21.3780332 C74.1703105,21.3780332 72.7374495,21.3780332 71.5092829,21.4189017 L71.5092829,31.1864623 L75.5212938,31.1864623 Z M100.173493,23.8301405 C106.027754,23.8301405 109.630376,27.385696 109.630376,33.7203065 C109.630376,34.2515964 109.589437,34.9054917 109.46662,35.4776501 C109.302864,36.4176245 108.852537,37.1123883 107.337798,37.1123883 L96.3252375,37.0715198 C97.0621375,38.9923372 98.6996929,40.0140485 100.869454,40.0140485 C102.220437,40.0140485 103.366726,39.6462324 104.185504,39.1966794 C104.67677,38.9514687 105.04522,38.8288633 105.659304,38.8288633 C107.378737,38.8288633 108.033759,39.9731801 108.033759,41.1174968 C108.033759,42.2618135 107.296859,42.9565773 106.273387,43.5696041 C104.799587,44.5095785 102.670765,45 100.419126,45 C94.5239265,45 90.1025268,41.0357599 90.1025268,34.3333333 C90.1025268,27.7126437 94.4011099,23.8301405 100.173493,23.8301405 Z M100.173493,29.0613027 C97.9218541,29.0613027 96.3661764,30.2056194 95.9567875,32.9438059 L104.062687,32.9438059 C103.93987,30.4508301 102.711704,29.0613027 100.173493,29.0613027 Z M118.398287,40.9948914 C118.398287,43.5696041 117.456692,44.6321839 115.245993,44.6321839 C113.321865,44.6321839 112.093698,43.201788 112.093698,40.9948914 L112.093698,16.6372925 C112.093698,14.4303959 113.321865,13 115.245993,13 C117.456692,13 118.398287,14.4303959 118.398287,16.6372925 L118.398287,40.9948914 Z M130.932575,23.8301405 C136.786836,23.8301405 140.389458,27.385696 140.389458,33.7203065 C140.389458,34.2515964 140.348519,34.9054917 140.225703,35.4776501 C140.061947,36.4176245 139.611619,37.1123883 138.096881,37.1123883 L127.08432,37.0715198 C127.82122,38.9923372 129.458776,40.0140485 131.628537,40.0140485 C132.97952,40.0140485 134.125809,39.6462324 134.944586,39.1966794 C135.435853,38.9514687 135.804303,38.8288633 136.418386,38.8288633 C138.137819,38.8288633 138.792842,39.9731801 138.792842,41.1174968 C138.792842,42.2618135 138.055942,42.9565773 137.03247,43.5696041 C135.55867,44.5095785 133.429848,45 131.178209,45 C125.283009,45 120.861609,41.0357599 120.861609,34.3333333 C120.861609,27.7126437 125.160193,23.8301405 130.932575,23.8301405 Z M130.932575,29.0613027 C128.680937,29.0613027 127.125259,30.2056194 126.71587,32.9438059 L134.82177,32.9438059 C134.698953,30.4508301 133.470786,29.0613027 130.932575,29.0613027 Z M160.743074,40.3409962 C161.070585,40.9131545 161.439035,41.5261814 161.439035,42.2209451 C161.439035,43.5287356 160.088052,44.8773946 158.368619,44.8773946 C157.467963,44.8773946 156.894819,44.550447 156.362613,43.9782886 C155.912286,43.5287356 155.625713,43.1609195 155.421019,42.2209451 C154.233791,43.8556833 151.69558,45 149.280186,45 C145.227236,45 142.238698,42.8748404 142.238698,39.3601533 C142.238698,36.0906769 144.490336,33.2298851 151.818397,33.2298851 C152.80093,33.2298851 153.333136,33.2298851 154.315669,33.311622 L154.315669,32.3716475 C154.315669,29.9195402 152.80093,28.8569604 150.549292,28.8569604 C148.747981,28.8569604 147.765447,29.5925926 146.864792,30.532567 C146.332586,31.1864623 145.636625,31.7586207 144.449397,31.7586207 C143.016536,31.7586207 141.952125,30.8595147 141.952125,29.3065134 C141.952125,26.6091954 144.981603,23.6257982 150.794925,23.6257982 C157.508902,23.6257982 159.924296,26.9770115 159.924296,31.1455939 C159.924296,33.0664112 159.760541,35.2324393 159.760541,36.458493 C159.760541,38.706258 160.088052,39.4418902 160.743074,40.3409962 Z M149.812392,40.5453384 C151.941214,40.5453384 153.988158,39.0332056 154.233791,37.2758621 C153.578769,37.2349936 152.964686,37.1941252 151.900275,37.1941252 C148.052019,37.1941252 147.233242,38.0523627 147.233242,39.1149425 C147.233242,39.9731801 148.133897,40.5453384 149.812392,40.5453384 Z M171.680746,44.8773946 C168.774085,44.8773946 166.522447,44.1826309 164.92583,43.1200511 C164.025175,42.5478927 163.206397,41.853129 163.206397,40.6270754 C163.206397,39.2784163 164.18893,38.3793103 165.498975,38.3793103 C166.276813,38.3793103 166.849958,38.6653895 167.586858,39.0740741 C169.019719,39.8914432 170.575396,40.3001277 172.253891,40.3001277 C173.973324,40.3001277 174.87398,39.8914432 174.87398,39.1966794 C174.87398,36.6628352 162.71513,39.2784163 162.71513,30.7777778 C162.71513,26.6909323 166.072119,23.8710089 171.844502,23.8710089 C176.143085,23.8710089 178.599418,25.4648787 179.909463,27.4265645 C180.318851,27.9987229 180.646362,28.6526181 180.646362,29.5108557 C180.646362,31.0229885 179.704768,32.0446999 178.312846,32.0446999 C177.207496,32.0446999 176.67529,31.3908046 175.979329,30.7369093 C175.324307,29.9604087 174.50553,28.734355 171.394174,28.734355 C169.019719,28.734355 167.996247,29.4699872 167.996247,30.5734355 C167.996247,34.2515964 180.032279,31.5542784 180.032279,38.8697318 C180.032279,42.5887612 176.961863,44.8773946 171.680746,44.8773946 Z M192.198118,23.8301405 C198.052379,23.8301405 201.655001,27.385696 201.655001,33.7203065 C201.655001,34.2515964 201.614062,34.9054917 201.491245,35.4776501 C201.32749,36.4176245 200.877162,37.1123883 199.362423,37.1123883 L188.349863,37.0715198 C189.086763,38.9923372 190.724318,40.0140485 192.894079,40.0140485 C194.245062,40.0140485 195.391351,39.6462324 196.210129,39.1966794 C196.701395,38.9514687 197.069845,38.8288633 197.683929,38.8288633 C199.403362,38.8288633 200.058384,39.9731801 200.058384,41.1174968 C200.058384,42.2618135 199.321484,42.9565773 198.298012,43.5696041 C196.824212,44.5095785 194.69539,45 192.443751,45 C186.548552,45 182.127152,41.0357599 182.127152,34.3333333 C182.127152,27.7126437 186.425735,23.8301405 192.198118,23.8301405 Z M192.198118,29.0613027 C189.946479,29.0613027 188.390802,30.2056194 187.981413,32.9438059 L196.087312,32.9438059 C195.964495,30.4508301 194.736329,29.0613027 192.198118,29.0613027 Z M222.302178,15.7381865 C233.478494,15.7381865 238.923366,21.7458493 238.923366,30.2464879 C238.923366,38.9106003 233.478494,44.7547893 222.302178,44.7547893 C218.453923,44.7547893 216.816368,44.6730524 215.465384,44.6321839 C213.500318,44.6321839 212.190273,43.201788 212.190273,40.7088123 L212.190273,19.7841635 C212.190273,17.2911877 213.500318,15.9833972 215.465384,15.9833972 C216.857307,15.9425287 219.149884,15.7381865 222.302178,15.7381865 Z M222.097484,39.0740741 C229.261789,39.0740741 232.250328,35.4776501 232.250328,30.2873563 C232.250328,25.2605364 229.261789,21.6641124 222.097484,21.6641124 C220.746501,21.6641124 219.641151,21.7049808 218.617679,21.7049808 L218.617679,38.9923372 C219.641151,39.0332056 220.664623,39.0740741 222.097484,39.0740741 Z M254.282438,24.4840358 C255.142155,24.9335888 255.879055,25.7918263 255.879055,27.0178799 C255.879055,28.8978289 254.732766,29.9195402 253.46366,29.9195402 C252.685822,29.9195402 252.153616,29.5108557 250.966388,29.5108557 C249.206016,29.5108557 247.814094,30.9412516 247.773155,32.9846743 L247.773155,41.1992337 C247.773155,43.4061303 246.50405,44.6321839 244.538983,44.6321839 C242.614856,44.6321839 241.509506,43.4061303 241.509506,41.1992337 L241.509506,27.5083014 C241.509506,25.4240102 242.614856,24.1570881 244.498044,24.1570881 C245.685272,24.1570881 246.708744,24.9335888 247.118133,26.2005109 C248.223483,24.8109834 249.779161,23.9118774 251.416716,23.9118774 C252.808638,23.9118774 253.627416,24.1570881 254.282438,24.4840358 Z M275.086382,40.3409962 C275.413893,40.9131545 275.782343,41.5261814 275.782343,42.2209451 C275.782343,43.5287356 274.43136,44.8773946 272.711926,44.8773946 C271.811271,44.8773946 271.238127,44.550447 270.705921,43.9782886 C270.255593,43.5287356 269.969021,43.1609195 269.764327,42.2209451 C268.577099,43.8556833 266.038888,45 263.623494,45 C259.570544,45 256.582005,42.8748404 256.582005,39.3601533 C256.582005,36.0906769 258.833644,33.2298851 266.161705,33.2298851 C267.144238,33.2298851 267.676443,33.2298851 268.658977,33.311622 L268.658977,32.3716475 C268.658977,29.9195402 267.144238,28.8569604 264.892599,28.8569604 C263.091288,28.8569604 262.108755,29.5925926 261.208099,30.532567 C260.675894,31.1864623 259.979933,31.7586207 258.792705,31.7586207 C257.359844,31.7586207 256.295433,30.8595147 256.295433,29.3065134 C256.295433,26.6091954 259.324911,23.6257982 265.138232,23.6257982 C271.85221,23.6257982 274.267604,26.9770115 274.267604,31.1455939 C274.267604,33.0664112 274.103849,35.2324393 274.103849,36.458493 C274.103849,38.706258 274.43136,39.4418902 275.086382,40.3409962 Z M293.40903,24.5249042 L293.40903,22.8492976 C293.40903,20.7650064 294.760013,19.3754789 296.643202,19.3754789 C298.52639,19.3754789 299.713618,20.7241379 299.713618,22.8492976 L299.713618,24.5249042 L303.766568,24.5249042 C305.281307,24.5249042 306.222901,25.587484 306.222901,26.8952746 C306.222901,28.1621967 305.281307,29.265645 303.766568,29.265645 L299.713618,29.265645 L299.713618,37.1941252 C299.713618,38.5836526 300.409579,39.4418902 301.310235,39.4418902 C301.883379,39.4418902 302.415585,39.3601533 302.743096,39.2375479 C303.070607,39.155811 303.234362,39.155811 303.602812,39.155811 C304.626285,39.155811 305.52694,39.9731801 305.52694,41.6079183 C305.52694,42.9565773 304.626285,43.7330779 303.848446,44.0600255 C302.661218,44.550447 301.47399,44.7139208 300.082068,44.7139208 C295.865363,44.7139208 293.40903,42.4661558 293.40903,38.0932312 L293.40903,29.3065134 L286.228748,29.3065134 L286.228748,41.2809706 C286.228748,43.3652618 285.123399,44.7139208 283.199271,44.7139208 C281.316082,44.7139208 279.965099,42.9974457 279.965099,41.2809706 L279.965099,29.3065134 L278.163788,29.3065134 C276.649049,29.3065134 275.707455,28.1621967 275.707455,26.8952746 C275.707455,25.3831418 276.649049,24.5249042 278.163788,24.5249042 L279.965099,24.5249042 L279.965099,20.8467433 C279.965099,15.3703704 283.690538,13 287.620671,13 C288.603204,13 290.077004,13.1634738 291.264231,13.5721584 C292.77897,14.0625798 294.048076,14.7573436 294.048076,16.4738186 C294.048076,17.8633461 293.106481,18.8033206 292.083009,18.8033206 C291.632681,18.8033206 291.346109,18.7215837 291.059537,18.6807152 C290.732026,18.5581098 290.077004,18.394636 289.544798,18.394636 C287.497854,18.394636 286.228748,19.5798212 286.228748,22.3588761 L286.228748,24.5249042 L293.40903,24.5249042 Z M264.155699,40.5453384 C262.477205,40.5453384 261.576549,39.9731801 261.576549,39.1149425 C261.576549,38.0523627 262.395327,37.1941252 266.243582,37.1941252 C267.307993,37.1941252 267.922077,37.2349936 268.577099,37.2758621 C268.331466,39.0332056 266.284521,40.5453384 264.155699,40.5453384 Z M316.751184,23.8301405 C322.605445,23.8301405 326.208067,27.385696 326.208067,33.7203065 C326.208067,34.2515964 326.167128,34.9054917 326.044312,35.4776501 C325.880556,36.4176245 325.430228,37.1123883 323.915489,37.1123883 L312.902929,37.0715198 C313.639829,38.9923372 315.277384,40.0140485 317.447145,40.0140485 C318.798129,40.0140485 319.944418,39.6462324 320.763195,39.1966794 C321.254462,38.9514687 321.622912,38.8288633 322.236995,38.8288633 C323.956428,38.8288633 324.611451,39.9731801 324.611451,41.1174968 C324.611451,42.2618135 323.874551,42.9565773 322.851078,43.5696041 C321.377279,44.5095785 319.248456,45 316.996818,45 C311.101618,45 306.680218,41.0357599 306.680218,34.3333333 C306.680218,27.7126437 310.978801,23.8301405 316.751184,23.8301405 Z M316.751184,29.0613027 C314.499546,29.0613027 312.943868,30.2056194 312.534479,32.9438059 L320.640379,32.9438059 C320.517562,30.4508301 319.289395,29.0613027 316.751184,29.0613027 Z M341.403383,24.4840358 C342.2631,24.9335888 343,25.7918263 343,27.0178799 C343,28.8978289 341.853711,29.9195402 340.584606,29.9195402 C339.806767,29.9195402 339.274561,29.5108557 338.087334,29.5108557 C336.326962,29.5108557 334.935039,30.9412516 334.894101,32.9846743 L334.894101,41.1992337 C334.894101,43.4061303 333.624995,44.6321839 331.659929,44.6321839 C329.735801,44.6321839 328.630451,43.4061303 328.630451,41.1992337 L328.630451,27.5083014 C328.630451,25.4240102 329.735801,24.1570881 331.61899,24.1570881 C332.806217,24.1570881 333.829689,24.9335888 334.239078,26.2005109 C335.344428,24.8109834 336.900106,23.9118774 338.537661,23.9118774 C339.929584,23.9118774 340.748361,24.1570881 341.403383,24.4840358 Z" id="Release-Drafter" fill="#000000" stroke="#808080" stroke-width="1.2"></path>
    </g>
</svg>
