<?xml version="1.0" encoding="UTF-8"?>
<svg width="216px" height="60px" viewBox="0 0 216 60" version="1.1" xmlns="http://www.w3.org/2000/svg" xmlns:xlink="http://www.w3.org/1999/xlink">
    <!-- Generator: Sketch 50.2 (55047) - http://www.bohemiancoding.com/sketch -->
    <title>logo</title>
    <desc>Created with Sketch.</desc>
    <defs></defs>
    <g id="logo" stroke="none" stroke-width="1" fill="none" fill-rule="evenodd">
        <rect id="Rectangle" fill="#DE630F" x="11" y="10" width="40" height="40" rx="4"></rect>
        <path d="M33,34.422 L33,34 C33,32.896 32.105,32 31,32 L25,32 C23.895,32 23,32.896 23,34 L23,34.422 C21.236,35.194 20,36.951 20,39 L20,42 L36,42 L36,39 C36,36.951 34.764,35.194 33,34.422 Z M37,18 C31.477,18 27,22.477 27,28 L27,30 L29,30 L29,28 C29,27.893 29.029,25.368 31.553,24.105 C32.049,23.858 32.648,24.059 32.895,24.552 C33.142,25.046 32.942,25.647 32.448,25.894 C31.017,26.61 31,27.986 31,28 L34,28 C39.523,28 44,23.523 44,18 L37,18 Z" id="inkwell" fill="#FFFFFF" fill-rule="nonzero"></path>
        <path d="M75.1325878,15.7381865 C86.3317639,15.7381865 91.7877727,21.7458493 91.7877727,30.2464879 C91.7877727,38.9106003 86.3317639,44.7547893 75.1325878,44.7547893 C71.2764613,44.7547893 69.6355564,44.6730524 68.2818098,44.6321839 C66.3127239,44.6321839 65,43.201788 65,40.7088123 L65,19.7841635 C65,17.2911877 66.3127239,15.9833972 68.2818098,15.9833972 C69.676579,15.9425287 71.9738459,15.7381865 75.1325878,15.7381865 Z M74.9274747,39.0740741 C82.1064337,39.0740741 85.1010852,35.4776501 85.1010852,30.2873563 C85.1010852,25.2605364 82.1064337,21.6641124 74.9274747,21.6641124 C73.5737282,21.6641124 72.4661174,21.7049808 71.4405518,21.7049808 L71.4405518,38.9923372 C72.4661174,39.0332056 73.4916829,39.0740741 74.9274747,39.0740741 Z M107.17826,24.4840358 C108.039735,24.9335888 108.778142,25.7918263 108.778142,27.0178799 C108.778142,28.8978289 107.629509,29.9195402 106.357808,29.9195402 C105.578378,29.9195402 105.045084,29.5108557 103.855428,29.5108557 C102.091455,29.5108557 100.696686,30.9412516 100.655663,32.9846743 L100.655663,41.1992337 C100.655663,43.4061303 99.3839618,44.6321839 97.4148759,44.6321839 C95.4868126,44.6321839 94.3792018,43.4061303 94.3792018,41.1992337 L94.3792018,27.5083014 C94.3792018,25.4240102 95.4868126,24.1570881 97.3738532,24.1570881 C98.5635093,24.1570881 99.5890749,24.9335888 99.9993011,26.2005109 C101.106912,24.8109834 102.665772,23.9118774 104.306676,23.9118774 C105.701446,23.9118774 106.521898,24.1570881 107.17826,24.4840358 Z M128.024756,40.3409962 C128.352937,40.9131545 128.722141,41.5261814 128.722141,42.2209451 C128.722141,43.5287356 127.368394,44.8773946 125.645444,44.8773946 C124.742946,44.8773946 124.16863,44.550447 123.635336,43.9782886 C123.184087,43.5287356 122.896928,43.1609195 122.691815,42.2209451 C121.502159,43.8556833 118.958757,45 116.538422,45 C112.477182,45 109.482531,42.8748404 109.482531,39.3601533 C109.482531,36.0906769 111.738775,33.2298851 119.081825,33.2298851 C120.066367,33.2298851 120.599662,33.2298851 121.584205,33.311622 L121.584205,32.3716475 C121.584205,29.9195402 120.066367,28.8569604 117.810123,28.8569604 C116.005128,28.8569604 115.020585,29.5925926 114.118087,30.532567 C113.584793,31.1864623 112.887409,31.7586207 111.697752,31.7586207 C110.261961,31.7586207 109.195372,30.8595147 109.195372,29.3065134 C109.195372,26.6091954 112.231047,23.6257982 118.056259,23.6257982 C124.783969,23.6257982 127.204304,26.9770115 127.204304,31.1455939 C127.204304,33.0664112 127.040213,35.2324393 127.040213,36.458493 C127.040213,38.706258 127.368394,39.4418902 128.024756,40.3409962 Z M146.384881,24.5249042 L146.384881,22.8492976 C146.384881,20.7650064 147.738628,19.3754789 149.625669,19.3754789 C151.512709,19.3754789 152.702365,20.7241379 152.702365,22.8492976 L152.702365,24.5249042 L156.763605,24.5249042 C158.281442,24.5249042 159.224962,25.587484 159.224962,26.8952746 C159.224962,28.1621967 158.281442,29.265645 156.763605,29.265645 L152.702365,29.265645 L152.702365,37.1941252 C152.702365,38.5836526 153.39975,39.4418902 154.302248,39.4418902 C154.876564,39.4418902 155.409858,39.3601533 155.738039,39.2375479 C156.06622,39.155811 156.230311,39.155811 156.599514,39.155811 C157.62508,39.155811 158.527578,39.9731801 158.527578,41.6079183 C158.527578,42.9565773 157.62508,43.7330779 156.84565,44.0600255 C155.655994,44.550447 154.466338,44.7139208 153.071569,44.7139208 C148.846239,44.7139208 146.384881,42.4661558 146.384881,38.0932312 L146.384881,29.3065134 L139.189914,29.3065134 L139.189914,41.2809706 C139.189914,43.3652618 138.082303,44.7139208 136.154239,44.7139208 C134.267199,44.7139208 132.913452,42.9974457 132.913452,41.2809706 L132.913452,29.3065134 L131.108457,29.3065134 C129.59062,29.3065134 128.647099,28.1621967 128.647099,26.8952746 C128.647099,25.3831418 129.59062,24.5249042 131.108457,24.5249042 L132.913452,24.5249042 L132.913452,20.8467433 C132.913452,15.3703704 136.646511,13 140.584683,13 C141.569226,13 143.04604,13.1634738 144.235696,13.5721584 C145.753533,14.0625798 147.025235,14.7573436 147.025235,16.4738186 C147.025235,17.8633461 146.081714,18.8033206 145.056149,18.8033206 C144.6049,18.8033206 144.317741,18.7215837 144.030583,18.6807152 C143.702402,18.5581098 143.04604,18.394636 142.512746,18.394636 C140.461615,18.394636 139.189914,19.5798212 139.189914,22.3588761 L139.189914,24.5249042 L142.348656,24.5249042 L146.384881,24.5249042 Z M117.071716,40.5453384 C115.389788,40.5453384 114.487291,39.9731801 114.487291,39.1149425 C114.487291,38.0523627 115.307743,37.1941252 119.16387,37.1941252 C120.230458,37.1941252 120.845797,37.2349936 121.502159,37.2758621 C121.256024,39.0332056 119.204892,40.5453384 117.071716,40.5453384 Z M178.676689,40.3409962 C179.00487,40.9131545 179.374074,41.5261814 179.374074,42.2209451 C179.374074,43.5287356 178.020327,44.8773946 176.297377,44.8773946 C175.39488,44.8773946 174.820563,44.550447 174.287269,43.9782886 C173.83602,43.5287356 173.548861,43.1609195 173.343748,42.2209451 C172.154092,43.8556833 169.61069,45 167.190355,45 C163.129115,45 160.134464,42.8748404 160.134464,39.3601533 C160.134464,36.0906769 162.390708,33.2298851 169.733758,33.2298851 C170.718301,33.2298851 171.251595,33.2298851 172.236138,33.311622 L172.236138,32.3716475 C172.236138,29.9195402 170.718301,28.8569604 168.462056,28.8569604 C166.657061,28.8569604 165.672518,29.5925926 164.77002,30.532567 C164.236726,31.1864623 163.539342,31.7586207 162.349685,31.7586207 C160.913894,31.7586207 159.847305,30.8595147 159.847305,29.3065134 C159.847305,26.6091954 162.88298,23.6257982 168.708192,23.6257982 C175.435902,23.6257982 177.856237,26.9770115 177.856237,31.1455939 C177.856237,33.0664112 177.692146,35.2324393 177.692146,36.458493 C177.692146,38.706258 178.020327,39.4418902 178.676689,40.3409962 Z M167.723649,40.5453384 C169.856825,40.5453384 171.907957,39.0332056 172.154092,37.2758621 C171.49773,37.2349936 170.882391,37.1941252 169.815803,37.1941252 C165.959676,37.1941252 165.139224,38.0523627 165.139224,39.1149425 C165.139224,39.9731801 166.041722,40.5453384 167.723649,40.5453384 Z M193.082634,23.8710089 C198.456597,23.8710089 201,26.6500639 201,31.8812261 L201,41.6487867 C201,43.3652618 199.892389,44.6321839 197.882281,44.6321839 C195.83115,44.6321839 194.600471,43.3652618 194.600471,41.6487867 L194.600471,32.6985951 C194.600471,30.083014 193.246724,29.1430396 191.441729,29.1430396 C189.185485,29.1430396 187.790715,30.4508301 187.790715,32.9029374 L187.790715,41.6487867 C187.790715,43.6922095 186.847195,44.6321839 184.631973,44.6321839 C182.70391,44.6321839 181.473232,43.5696041 181.473232,41.6487867 L181.473232,15.9833972 C181.473232,14.1851852 182.70391,13 184.631973,13 C186.76515,13 187.790715,14.1851852 187.790715,15.9833972 L187.790715,25.3422733 C189.308552,24.3205619 191.236616,23.8710089 193.082634,23.8710089 Z" id="Draftah" fill="#000000"></path>
    </g>
</svg>